<?xml version="1.0" encoding="UTF-8" standalone="no"?>
<!-- Created with Inkscape (http://www.inkscape.org/) -->

<svg
   xmlns:dc="http://purl.org/dc/elements/1.1/"
   xmlns:cc="http://creativecommons.org/ns#"
   xmlns:rdf="http://www.w3.org/1999/02/22-rdf-syntax-ns#"
   xmlns:svg="http://www.w3.org/2000/svg"
   xmlns="http://www.w3.org/2000/svg"
   xmlns:xlink="http://www.w3.org/1999/xlink"
   xmlns:sodipodi="http://sodipodi.sourceforge.net/DTD/sodipodi-0.dtd"
   xmlns:inkscape="http://www.inkscape.org/namespaces/inkscape"
   width="6.3499999mm"
   height="6.3499999mm"
   viewBox="0 0 6.3499999 6.3499999"
   version="1.1"
   id="svg1578"
   inkscape:version="0.92.4 (5da689c313, 2019-01-14)"
   sodipodi:docname="system-lock-screen.svg">
  <defs
     id="defs1572">
    <radialGradient
       gradientTransform="matrix(0.26458333,0,0,0.26458333,-111.29981,97.301004)"
       inkscape:collect="always"
       xlink:href="#linearGradient924"
       id="radialGradient926"
       cx="162"
       cy="12"
       fx="162"
       fy="12"
       r="11"
       gradientUnits="userSpaceOnUse" />
    <linearGradient
       inkscape:collect="always"
       id="linearGradient924">
      <stop
         style="stop-color:#008080;stop-opacity:1;"
         offset="0"
         id="stop920" />
      <stop
         style="stop-color:#008080;stop-opacity:0;"
         offset="1"
         id="stop922" />
    </linearGradient>
  </defs>
  <sodipodi:namedview
     id="base"
     pagecolor="#ffffff"
     bordercolor="#666666"
     borderopacity="1.0"
     inkscape:pageopacity="0.0"
     inkscape:pageshadow="2"
     inkscape:zoom="11.2"
     inkscape:cx="31.643817"
     inkscape:cy="-2.3453916"
     inkscape:document-units="mm"
     inkscape:current-layer="layer1"
     showgrid="false"
     inkscape:window-width="1920"
     inkscape:window-height="1028"
     inkscape:window-x="0"
     inkscape:window-y="0"
     inkscape:window-maximized="1" />
  <metadata
     id="metadata1575">
    <rdf:RDF>
      <cc:Work
         rdf:about="">
        <dc:format>image/svg+xml</dc:format>
        <dc:type
           rdf:resource="http://purl.org/dc/dcmitype/StillImage" />
        <dc:title></dc:title>
      </cc:Work>
    </rdf:RDF>
  </metadata>
  <g
     inkscape:label="Layer 1"
     inkscape:groupmode="layer"
     id="layer1"
     transform="translate(71.574997,-97.245003)">
    <rect
       y="97.245003"
       x="-71.574997"
       height="6.3499999"
       width="6.3499999"
       id="rect4570-7-5"
       style="color:#000000;display:inline;overflow:visible;visibility:visible;opacity:0.01000001;fill:#000000;fill-opacity:0.00392157;stroke:none;stroke-width:1.32291663;marker:none;enable-background:accumulate" />
    <path
       inkscape:connector-curvature="0"
       d="m -70.553981,97.565587 h 4.233333 c 0.529167,0 0.79375,0.264584 0.79375,0.79375 v 4.233333 c 0,0.52917 -0.264583,0.79375 -0.79375,0.79375 h -4.233333 c -0.529166,0 -0.79375,-0.26458 -0.79375,-0.79375 v -4.233333 c 0,-0.529166 0.264584,-0.79375 0.79375,-0.79375 z m 2.116675,2.910413 c 0.241125,0 0.43656,0.18613 0.43656,0.41578 0,0.15377 -0.08797,0.28771 -0.218282,0.35957 v 0.54127 h -0.436562 v -0.54127 c -0.130313,-0.0719 -0.218281,-0.2058 -0.218281,-0.35957 0,-0.22965 0.195434,-0.41578 0.436565,-0.41578 z m 0,-1.870978 c -0.520896,0 -0.946047,0.404889 -0.946047,0.900977 v 0.499411 c -0.436801,0.0351 -0.505296,0.16029 -0.509164,0.61595 v 0.54773 0.54733 c 0.0053,0.6254 0.123904,0.63057 1.164087,0.63057 h 0.582242 c 1.040186,0 1.158777,-0.005 1.164087,-0.63057 v -0.54733 -0.54773 c -0.0039,-0.45566 -0.07237,-0.58088 -0.509158,-0.61595 v -0.499411 c -2.09e-4,-0.496088 -0.425157,-0.900977 -0.946047,-0.900977 z m 0,0.346343 c 0.325601,0 0.582244,0.244536 0.582244,0.554634 v 0.486019 c -0.08947,-8.2e-4 -0.182469,-0.0012 -0.291126,-0.0012 h -0.582242 c -0.108506,0 -0.20135,2.07e-4 -0.290721,0.0012 v -0.486016 c 0,-0.310098 0.256241,-0.554634 0.581845,-0.554634 z"
       style="color:#000000;text-indent:0;text-transform:none;fill:url(#radialGradient926);fill-opacity:1;fill-rule:evenodd;stroke-width:0.26458332;color-rendering:auto;image-rendering:auto;shape-rendering:auto"
       id="rect5190-0-1" />
  </g>
</svg>
