<?xml version="1.0" encoding="UTF-8" standalone="no"?>
<svg
   xmlns:dc="http://purl.org/dc/elements/1.1/"
   xmlns:cc="http://creativecommons.org/ns#"
   xmlns:rdf="http://www.w3.org/1999/02/22-rdf-syntax-ns#"
   xmlns:svg="http://www.w3.org/2000/svg"
   xmlns="http://www.w3.org/2000/svg"
   xmlns:xlink="http://www.w3.org/1999/xlink"
   xmlns:sodipodi="http://sodipodi.sourceforge.net/DTD/sodipodi-0.dtd"
   xmlns:inkscape="http://www.inkscape.org/namespaces/inkscape"
   inkscape:version="1.0 (4035a4fb49, 2020-05-01)"
   sodipodi:docname="system-reboot.svg"
   id="svg7"
   viewBox="0 0 22 22"
   version="1.1">
  <metadata
     id="metadata11">
    <rdf:RDF>
      <cc:Work
         rdf:about="">
        <dc:format>image/svg+xml</dc:format>
        <dc:type
           rdf:resource="http://purl.org/dc/dcmitype/StillImage" />
      </cc:Work>
    </rdf:RDF>
  </metadata>
  <sodipodi:namedview
     inkscape:current-layer="svg7"
     inkscape:window-maximized="1"
     inkscape:window-y="0"
     inkscape:window-x="0"
     inkscape:cy="11"
     inkscape:cx="11"
     inkscape:zoom="28.545455"
     showgrid="false"
     id="namedview9"
     inkscape:window-height="1023"
     inkscape:window-width="1920"
     inkscape:pageshadow="2"
     inkscape:pageopacity="0"
     guidetolerance="10"
     gridtolerance="10"
     objecttolerance="10"
     borderopacity="1"
     bordercolor="#666666"
     pagecolor="#ffffff" />
  <defs
     id="defs3">
    <linearGradient
       id="linearGradient840"
       inkscape:collect="always">
      <stop
         id="stop836"
         offset="0"
         style="stop-color:#00b8b8;stop-opacity:1" />
      <stop
         id="stop838"
         offset="1"
         style="stop-color:#001e1e;stop-opacity:1" />
    </linearGradient>
    <style
       id="current-color-scheme"
       type="text/css">.ColorScheme-Text {
        color:#232629;
      }</style>
    <linearGradient
       gradientUnits="userSpaceOnUse"
       y2="11"
       x2="19"
       y1="11"
       x1="3"
       id="linearGradient842"
       xlink:href="#linearGradient840"
       inkscape:collect="always" />
  </defs>
  <path
     style="fill-opacity:1;fill:url(#linearGradient842)"
     id="path5"
     d="m 19,11 c 0,1.441714 -0.382922,2.789289 -1.044922,3.955078 l -0.738281,-0.738281 c 0,0 0.002,-0.0019 0.002,-0.0019 l -2.777344,-2.779297 0.707032,-0.707031 2.480468,2.482422 C 17.861583,12.515315 18,11.776088 18,11 18,7.12203 14.878,4 11,4 9.8375,4 8.746103,4.285828 7.783203,4.783203 L 7.044922,4.044922 C 8.210722,3.382871 9.5583,3 11,3 c 4.432,0 8,3.568034 8,8 z m -4.044922,6.955078 C 13.789278,18.617129 12.4417,19 11,19 6.568,19 3,15.431966 3,11 3,9.558286 3.382922,8.210711 4.044922,7.044922 l 0.683594,0.683594 0.002,-0.002 2.828125,2.828126 L 6.851609,11.261673 4.373094,8.783157 C 4.139126,9.480503 4,10.221736 4,11 c 0,3.87797 3.122,7 7,7 1.1625,0 2.253897,-0.285829 3.216797,-0.783203 z"
     fill="currentColor"
     class="ColorScheme-Text" />
</svg>
