<?xml version="1.0" encoding="UTF-8" standalone="no"?>
<svg
   xmlns:dc="http://purl.org/dc/elements/1.1/"
   xmlns:cc="http://creativecommons.org/ns#"
   xmlns:rdf="http://www.w3.org/1999/02/22-rdf-syntax-ns#"
   xmlns:svg="http://www.w3.org/2000/svg"
   xmlns="http://www.w3.org/2000/svg"
   xmlns:xlink="http://www.w3.org/1999/xlink"
   xmlns:sodipodi="http://sodipodi.sourceforge.net/DTD/sodipodi-0.dtd"
   xmlns:inkscape="http://www.inkscape.org/namespaces/inkscape"
   viewBox="0 0 32 32"
   version="1.1"
   id="svg12"
   sodipodi:docname="folder-Manjaro.svg"
   inkscape:version="1.0.1 (3bc2e813f5, 2020-09-07)">
  <metadata
     id="metadata16">
    <rdf:RDF>
      <cc:Work
         rdf:about="">
        <dc:format>image/svg+xml</dc:format>
        <dc:type
           rdf:resource="http://purl.org/dc/dcmitype/StillImage" />
        <dc:title></dc:title>
      </cc:Work>
    </rdf:RDF>
  </metadata>
  <sodipodi:namedview
     pagecolor="#ffffff"
     bordercolor="#666666"
     borderopacity="1"
     objecttolerance="10"
     gridtolerance="10"
     guidetolerance="10"
     inkscape:pageopacity="0"
     inkscape:pageshadow="2"
     inkscape:window-width="1920"
     inkscape:window-height="1017"
     id="namedview14"
     showgrid="false"
     inkscape:zoom="7.375"
     inkscape:cx="-32.677966"
     inkscape:cy="16"
     inkscape:window-x="0"
     inkscape:window-y="0"
     inkscape:window-maximized="1"
     inkscape:current-layer="svg12"
     inkscape:document-rotation="0" />
  <defs
     id="defs3051">
    <linearGradient
       inkscape:collect="always"
       id="linearGradient835">
      <stop
         style="stop-color:#00b8b8;stop-opacity:1"
         offset="0"
         id="stop831" />
      <stop
         style="stop-color:#00b8b8;stop-opacity:1"
         offset="1"
         id="stop833" />
    </linearGradient>
    <linearGradient
       inkscape:collect="always"
       id="linearGradient827">
      <stop
         style="stop-color:#00b8b8;stop-opacity:1"
         offset="0"
         id="stop823" />
      <stop
         style="stop-color:#001e1e;stop-opacity:1"
         offset="1"
         id="stop825" />
    </linearGradient>
    <style
       type="text/css"
       id="current-color-scheme">
      .ColorScheme-Text {
        color:#31363b;
      }
      .ColorScheme-Background {
        color:#eff0f1;
      }
      .ColorScheme-Highlight {
        color:#3daee9;
      }
      .ColorScheme-ViewText {
        color:#31363b;
      }
      .ColorScheme-ViewBackground {
        color:#fcfcfc;
      }
      .ColorScheme-ViewHover {
        color:#93cee9;
      }
      .ColorScheme-ViewFocus{
        color:#3daee9;
      }
      .ColorScheme-ButtonText {
        color:#31363b;
      }
      .ColorScheme-ButtonBackground {
        color:#eff0f1;
      }
      .ColorScheme-ButtonHover {
        color:#93cee9;
      }
      .ColorScheme-ButtonFocus{
        color:#3daee9;
      }
      </style>
    <linearGradient
       inkscape:collect="always"
       xlink:href="#linearGradient827"
       id="linearGradient829"
       x1="1"
       y1="16"
       x2="53.237289"
       y2="16.542374"
       gradientUnits="userSpaceOnUse" />
    <linearGradient
       inkscape:collect="always"
       xlink:href="#linearGradient835"
       id="linearGradient837"
       x1="2"
       y1="6.5"
       x2="30"
       y2="6.5"
       gradientUnits="userSpaceOnUse" />
  </defs>
  <path
     style="fill:url(#linearGradient829);fill-opacity:1;stroke:none"
     d="M 2 3 L 2 10 L 1 10 L 1 29 L 12 29 L 13 29 L 31 29 L 31 8 L 30 8 L 30 5 L 16 5 L 14 3 L 2 3 z "
     class="ColorScheme-Highlight"
     id="path4" />
  <path
     style="fill-opacity:1;fill-rule:evenodd;fill:url(#linearGradient837)"
     d="m 2,3 0,7 9,0 L 13,8 30,8 30,5 16,5 14,3 2,3 Z"
     id="path6" />
  <path
     style="fill:#ffffff;fill-opacity:0.2;fill-rule:evenodd"
     d="M 14 3 L 15 6 L 30 6 L 30 5 L 16 5 L 14 3 z M 13 8 L 11 10 L 1 10 L 1 11 L 12 11 L 13 8 z "
     id="path8" />
  <path
     style="fill-opacity:0.2;fill-rule:evenodd"
     d="M 13 8 L 11 9 L 2 9 L 2 10 L 11 10 L 13 8 z M 1 28 L 1 29 L 31 29 L 31 28 L 1 28 z "
     class="ColorScheme-Text"
     id="path10" />
  <path
     style="opacity:1;fill:#ffffff;fill-opacity:1;stroke-width:0.625"
     d="m 11.286817,13.866517 c -0.296838,0 -0.535919,0.239103 -0.535919,0.535892 v 8.928226 c 0,0.296777 0.25219,0.448602 0.535919,0.535882 h 2.589082 v -6.875 h 3.75 v -3.125 z m 6.964082,0 v 10 h 2.589118 c 0.296778,0 0.535882,-0.239105 0.535882,-0.535882 v -8.928226 c 0,-0.296789 -0.239104,-0.535892 -0.535882,-0.535892 z m -6.875001,0.625 h 5.625001 v 1.875 h -3.125 a 0.6250622,0.6250622 0 0 0 -0.625001,0.625 v 6.25 h -1.845719 c -0.0111,-0.0047 -0.02175,-0.0081 -0.02947,-0.0122 z m 7.500001,0 h 1.875 v 8.75 h -1.875 z m -4.375,3.125 v 6.25 h 3.125 v -6.25 z m 0.625,0.625 h 1.875 v 5 h -1.875 z"
     id="path4-3" />
</svg>
