<?xml version="1.0" encoding="UTF-8" standalone="no"?>
<svg
   viewBox="0 0 32 32"
   version="1.1"
   id="svg9"
   sodipodi:docname="dialog-warning.svg"
   inkscape:version="1.4.2 (unknown)"
   xmlns:inkscape="http://www.inkscape.org/namespaces/inkscape"
   xmlns:sodipodi="http://sodipodi.sourceforge.net/DTD/sodipodi-0.dtd"
   xmlns="http://www.w3.org/2000/svg"
   xmlns:svg="http://www.w3.org/2000/svg">
  <defs
     id="defs9" />
  <sodipodi:namedview
     id="namedview9"
     pagecolor="#ffffff"
     bordercolor="#000000"
     borderopacity="0.25"
     inkscape:showpageshadow="2"
     inkscape:pageopacity="0.0"
     inkscape:pagecheckerboard="0"
     inkscape:deskcolor="#d1d1d1"
     inkscape:zoom="23.78125"
     inkscape:cx="16"
     inkscape:cy="16"
     inkscape:current-layer="svg9" />
  <linearGradient
     id="a"
     x2="0"
     y1="43.999989"
     y2="6.999989"
     gradientTransform="matrix(-.7567567 0 0 .7567567 35.297299 -3.297288)"
     gradientUnits="userSpaceOnUse">
    <stop
       stop-color="#faae2a"
       offset="0"
       id="stop1"
       style="stop-color:#faac24;stop-opacity:1;" />
    <stop
       stop-color="#ffc35a"
       offset="1"
       id="stop2" />
  </linearGradient>
  <linearGradient
     id="b"
     x1="7.923077"
     x2="23"
     y1="5.76923"
     y2="20.846154"
     gradientUnits="userSpaceOnUse">
    <stop
       stop-color="#292c2f"
       offset="0"
       id="stop3" />
    <stop
       stop-opacity="0"
       offset="1"
       id="stop4" />
  </linearGradient>
  <linearGradient
     id="c"
     x2="0"
     y1="29.999973"
     y2="2"
     gradientTransform="matrix(1.0769231 0 0 -1.0769231 -1.230769 27.307692)"
     gradientUnits="userSpaceOnUse">
    <stop
       stop-color="#fcd994"
       offset="0"
       id="stop5" />
    <stop
       stop-color="#fff6e1"
       offset="1"
       id="stop6" />
  </linearGradient>
  <g
     stroke-width=".538462"
     id="g9">
    <path
       d="m30 2v20h-14l-7 7v-7h-7v-20z"
       fill="url(#a)"
       fill-rule="evenodd"
       id="path6" />
    <path
       d="m16 4 9 15h-18l6 6 3-3h14v-4z"
       fill="url(#b)"
       fill-rule="evenodd"
       opacity=".2"
       id="path7" />
    <path
       d="m16 4-9 15h18zm1e-6 1.9616579 7.235006 12.056642h-14.470012zm-1.000001 4.0271567v5.0111854l2 0.01118v-5.01118zm0 6.0111854v1h2v-1z"
       fill="url(#c)"
       id="path8" />
    <path
       d="m2 21v1h7v-1zm14 0-7 7v1l7-7h14v-1z"
       fill="#e59305"
       fill-rule="evenodd"
       id="path9" />
  </g>
</svg>
