<?xml version="1.0" encoding="UTF-8" standalone="no"?>
<svg
   viewBox="0 0 32 32"
   version="1.1"
   id="svg9"
   sodipodi:docname="xfsm-hibernate.svg"
   inkscape:version="1.1.1 (3bf5ae0d25, 2021-09-20)"
   xmlns:inkscape="http://www.inkscape.org/namespaces/inkscape"
   xmlns:sodipodi="http://sodipodi.sourceforge.net/DTD/sodipodi-0.dtd"
   xmlns:xlink="http://www.w3.org/1999/xlink"
   xmlns="http://www.w3.org/2000/svg"
   xmlns:svg="http://www.w3.org/2000/svg">
  <defs
     id="defs13">
    <linearGradient
       inkscape:collect="always"
       id="linearGradient858">
      <stop
         style="stop-color:#00b8b8;stop-opacity:1"
         offset="0"
         id="stop854" />
      <stop
         style="stop-color:#001e1e;stop-opacity:1"
         offset="1"
         id="stop856" />
    </linearGradient>
    <linearGradient
       inkscape:collect="always"
       xlink:href="#linearGradient858"
       id="linearGradient860"
       x1="3"
       y1="15.879"
       x2="29"
       y2="15.879"
       gradientUnits="userSpaceOnUse" />
  </defs>
  <sodipodi:namedview
     id="namedview11"
     pagecolor="#ffffff"
     bordercolor="#666666"
     borderopacity="1.0"
     inkscape:pageshadow="2"
     inkscape:pageopacity="0.0"
     inkscape:pagecheckerboard="0"
     showgrid="false"
     inkscape:zoom="19.4375"
     inkscape:cx="16"
     inkscape:cy="16"
     inkscape:window-width="1920"
     inkscape:window-height="1006"
     inkscape:window-x="0"
     inkscape:window-y="0"
     inkscape:window-maximized="1"
     inkscape:current-layer="svg9" />
  <style
     type="text/css"
     id="current-color-scheme">
        .ColorScheme-Text {
            color:#232629;
        }
    </style>
  <g
     class="ColorScheme-Text"
     fill="currentColor"
     id="g7"
     style="fill:url(#linearGradient860);fill-opacity:1">
    <path
       d="M 9.79,5.242 8.922,5.742 11.068,9.459 7.453,8.49 7.195,9.457 11.775,10.684 14.844,16 H 8.707 L 5.354,12.646 4.646,13.354 7.293,16 H 3 v 1 H 7.293 L 4.646,19.646 5.354,20.354 8.707,17 h 6.137 l -3.069,5.316 -4.58,1.227 0.258,0.967 3.615,-0.969 -2.146,3.717 0.867,0.5 2.147,-3.717 0.968,3.615 0.965,-0.26 -1.226,-4.58 L 16,17 l 3.357,5.816 -1.226,4.58 0.965,0.26 0.968,-3.615 2.147,3.717 0.867,-0.5 -2.146,-3.717 3.615,0.969 0.258,-0.967 -4.58,-1.227 L 17.156,17 h 6.137 l 3.353,3.354 0.708,-0.708 L 24.707,17 H 29 V 16 H 24.707 L 27.354,13.354 26.646,12.646 23.293,16 H 16 v -0.002 l -3.357,-5.814 1.226,-4.58 -0.965,-0.26 -0.968,3.615 z M 23,4 v 1 h 2.293 l -2,2 L 23,7.293 V 8 h 4 V 7 h -2.293 l 2,-2 L 27,4.707 V 4 h -0.707 z"
       id="path3"
       style="fill:url(#linearGradient860);fill-opacity:1" />
    <path
       d="m 20,10 v 1 h 2.293 l -2,2 L 20,13.293 V 14 h 4 v -1 h -2.293 l 2,-2 L 24,10.707 V 10 H 23.293 Z M 16,5 v 1 h 2.293 l -2,2 L 16,8.293 V 9 h 4 V 8 h -2.293 l 2,-2 L 20,5.707 V 5 h -0.707 z"
       id="path5"
       style="fill:url(#linearGradient860);fill-opacity:1" />
  </g>
</svg>
