<?xml version="1.0" encoding="UTF-8" standalone="no"?>
<svg
   viewBox="0 0 32 32"
   version="1.1"
   id="svg4583"
   sodipodi:docname="system-hibernate.svg"
   inkscape:version="1.2.1 (9c6d41e410, 2022-07-14)"
   xmlns:inkscape="http://www.inkscape.org/namespaces/inkscape"
   xmlns:sodipodi="http://sodipodi.sourceforge.net/DTD/sodipodi-0.dtd"
   xmlns:xlink="http://www.w3.org/1999/xlink"
   xmlns="http://www.w3.org/2000/svg"
   xmlns:svg="http://www.w3.org/2000/svg">
  <defs
     id="defs4587">
    <linearGradient
       inkscape:collect="always"
       id="linearGradient5096">
      <stop
         style="stop-color:#00b8b8;stop-opacity:1;"
         offset="0"
         id="stop5092" />
      <stop
         style="stop-color:#001e1e;stop-opacity:1;"
         offset="1"
         id="stop5094" />
    </linearGradient>
    <linearGradient
       inkscape:collect="always"
       xlink:href="#linearGradient5096"
       id="linearGradient5098"
       x1="3"
       y1="15.879"
       x2="29"
       y2="15.879"
       gradientUnits="userSpaceOnUse" />
    <linearGradient
       inkscape:collect="always"
       xlink:href="#linearGradient5096"
       id="linearGradient5593"
       x1="16"
       y1="9.5"
       x2="24"
       y2="9.5"
       gradientUnits="userSpaceOnUse" />
  </defs>
  <sodipodi:namedview
     id="namedview4585"
     pagecolor="#ffffff"
     bordercolor="#666666"
     borderopacity="1.0"
     inkscape:showpageshadow="2"
     inkscape:pageopacity="0.0"
     inkscape:pagecheckerboard="0"
     inkscape:deskcolor="#d1d1d1"
     showgrid="false"
     inkscape:zoom="7.375"
     inkscape:cx="16"
     inkscape:cy="16.067797"
     inkscape:window-width="1920"
     inkscape:window-height="1002"
     inkscape:window-x="0"
     inkscape:window-y="0"
     inkscape:window-maximized="1"
     inkscape:current-layer="svg4583" />
  <style
     type="text/css"
     id="current-color-scheme">
        .ColorScheme-Text {
            color:#232629;
        }
    </style>
  <g
     class="ColorScheme-Text"
     fill="currentColor"
     id="g4581">
    <path
       d="M9.79 5.242l-.868.5 2.146 3.717-3.615-.969-.258.967 4.58 1.227L14.844 16H8.707l-3.353-3.354-.708.708L7.293 16H3v1h4.293l-2.647 2.646.708.708L8.707 17h6.137l-3.069 5.316-4.58 1.227.258.967 3.615-.969-2.146 3.717.867.5 2.147-3.717.968 3.615.965-.26-1.226-4.58L16 17l3.357 5.816-1.226 4.58.965.26.968-3.615 2.147 3.717.867-.5-2.146-3.717 3.615.969.258-.967-4.58-1.227L17.156 17h6.137l3.353 3.354.708-.708L24.707 17H29v-1h-4.293l2.647-2.646-.708-.708L23.293 16H16v-.002l-3.357-5.814 1.226-4.58-.965-.26-.968 3.615zM23 4v1h2.293l-2 2-.293.293V8h4V7h-2.293l2-2L27 4.707V4h-.707z"
       id="path4577"
       style="fill-opacity:1;fill:url(#linearGradient5098)" />
    <path
       d="M20 10v1h2.293l-2 2-.293.293V14h4v-1h-2.293l2-2 .293-.293V10h-.707zm-4-5v1h2.293l-2 2-.293.293V9h4V8h-2.293l2-2L20 5.707V5h-.707z"
       id="path4579"
       style="fill-opacity:1.0;fill:url(#linearGradient5593)" />
  </g>
</svg>
