<?xml version="1.0" encoding="UTF-8" standalone="no"?>
<!-- Created with Inkscape (http://www.inkscape.org/) -->

<svg
   xmlns:dc="http://purl.org/dc/elements/1.1/"
   xmlns:cc="http://creativecommons.org/ns#"
   xmlns:rdf="http://www.w3.org/1999/02/22-rdf-syntax-ns#"
   xmlns:svg="http://www.w3.org/2000/svg"
   xmlns="http://www.w3.org/2000/svg"
   xmlns:xlink="http://www.w3.org/1999/xlink"
   xmlns:sodipodi="http://sodipodi.sourceforge.net/DTD/sodipodi-0.dtd"
   xmlns:inkscape="http://www.inkscape.org/namespaces/inkscape"
   width="6.3499999mm"
   height="6.3499999mm"
   viewBox="0 0 6.3499999 6.3499999"
   version="1.1"
   id="svg2821"
   inkscape:version="0.92.4 (5da689c313, 2019-01-14)"
   sodipodi:docname="system-shut-down.svg">
  <defs
     id="defs2815">
    <radialGradient
       gradientTransform="matrix(0.26458333,0,0,0.26458333,-52.887132,21.995186)"
       inkscape:collect="always"
       xlink:href="#linearGradient884"
       id="radialGradient886"
       cx="12"
       cy="12"
       fx="12"
       fy="12"
       r="11"
       gradientUnits="userSpaceOnUse" />
    <linearGradient
       inkscape:collect="always"
       id="linearGradient884">
      <stop
         style="stop-color:#008080;stop-opacity:1;"
         offset="0"
         id="stop880" />
      <stop
         style="stop-color:#008080;stop-opacity:0;"
         offset="1"
         id="stop882" />
    </linearGradient>
  </defs>
  <sodipodi:namedview
     id="base"
     pagecolor="#ffffff"
     bordercolor="#666666"
     borderopacity="1.0"
     inkscape:pageopacity="0.0"
     inkscape:pageshadow="2"
     inkscape:zoom="15.839192"
     inkscape:cx="31.092466"
     inkscape:cy="13.963918"
     inkscape:document-units="mm"
     inkscape:current-layer="layer1"
     showgrid="false"
     inkscape:window-width="1920"
     inkscape:window-height="1028"
     inkscape:window-x="0"
     inkscape:window-y="0"
     inkscape:window-maximized="1" />
  <metadata
     id="metadata2818">
    <rdf:RDF>
      <cc:Work
         rdf:about="">
        <dc:format>image/svg+xml</dc:format>
        <dc:type
           rdf:resource="http://purl.org/dc/dcmitype/StillImage" />
        <dc:title></dc:title>
      </cc:Work>
    </rdf:RDF>
  </metadata>
  <g
     inkscape:label="Layer 1"
     inkscape:groupmode="layer"
     id="layer1"
     transform="translate(52.875999,-21.974001)">
    <rect
       y="21.974001"
       x="-52.875999"
       height="6.3499999"
       width="6.3499999"
       id="rect4570"
       style="color:#000000;display:inline;overflow:visible;visibility:visible;opacity:0.01000001;fill:#000000;fill-opacity:0.00392157;stroke:none;stroke-width:1.32291663;marker:none;enable-background:accumulate" />
    <path
       inkscape:connector-curvature="0"
       d="m -49.961589,23.008166 h 0.498928 v 1.829405 h -0.498928 z M -50.626698,23.591 c -0.278238,0.160357 -0.509946,0.391656 -0.670587,0.669406 -0.503959,0.871345 -0.202296,1.992261 0.670587,2.495335 0.872884,0.50307 1.995773,0.201941 2.499733,-0.669406 0.503959,-0.871348 0.202295,-1.992261 -0.670588,-2.495335 l -0.248476,0.431827 c 0.639162,0.368369 0.855495,1.177431 0.486475,1.81547 -0.36902,0.638036 -1.179506,0.853986 -1.818667,0.485615 -0.639161,-0.368367 -0.855495,-1.177432 -0.486476,-1.815468 0.116826,-0.201989 0.284128,-0.368997 0.486476,-0.48562 z m -1.202101,-1.331231 h 4.233333 c 0.529167,0 0.79375,0.264583 0.79375,0.79375 v 4.233333 c 0,0.529167 -0.264583,0.79375 -0.79375,0.79375 h -4.233333 c -0.529167,0 -0.79375,-0.264583 -0.79375,-0.79375 v -4.233333 c 0,-0.529167 0.264583,-0.79375 0.79375,-0.79375 z"
       style="color:#000000;display:inline;overflow:visible;visibility:visible;fill:url(#radialGradient886);fill-opacity:1;fill-rule:evenodd;stroke:none;stroke-width:2.3812499;marker:none;enable-background:accumulate"
       id="rect4747-1-3-0" />
  </g>
</svg>
