<?xml version="1.0" encoding="UTF-8" standalone="no"?>
<svg
   xmlns:dc="http://purl.org/dc/elements/1.1/"
   xmlns:cc="http://creativecommons.org/ns#"
   xmlns:rdf="http://www.w3.org/1999/02/22-rdf-syntax-ns#"
   xmlns:svg="http://www.w3.org/2000/svg"
   xmlns="http://www.w3.org/2000/svg"
   xmlns:xlink="http://www.w3.org/1999/xlink"
   xmlns:sodipodi="http://sodipodi.sourceforge.net/DTD/sodipodi-0.dtd"
   xmlns:inkscape="http://www.inkscape.org/namespaces/inkscape"
   viewBox="0 0 64 64"
   version="1.1"
   id="svg12"
   sodipodi:docname="folder-Pop_OS.svg"
   inkscape:version="1.0.1 (3bc2e813f5, 2020-09-07)">
  <metadata
     id="metadata16">
    <rdf:RDF>
      <cc:Work
         rdf:about="">
        <dc:format>image/svg+xml</dc:format>
        <dc:type
           rdf:resource="http://purl.org/dc/dcmitype/StillImage" />
      </cc:Work>
    </rdf:RDF>
  </metadata>
  <sodipodi:namedview
     pagecolor="#ffffff"
     bordercolor="#666666"
     borderopacity="1"
     objecttolerance="10"
     gridtolerance="10"
     guidetolerance="10"
     inkscape:pageopacity="0"
     inkscape:pageshadow="2"
     inkscape:window-width="1920"
     inkscape:window-height="1007"
     id="namedview14"
     showgrid="false"
     inkscape:zoom="2.6074563"
     inkscape:cx="-47.366576"
     inkscape:cy="14.027344"
     inkscape:window-x="0"
     inkscape:window-y="0"
     inkscape:window-maximized="1"
     inkscape:current-layer="svg12"
     inkscape:document-rotation="0" />
  <defs
     id="defs3051">
    <linearGradient
       inkscape:collect="always"
       id="linearGradient835">
      <stop
         style="stop-color:#00b8b8;stop-opacity:1"
         offset="0"
         id="stop831" />
      <stop
         style="stop-color:#00b8b8;stop-opacity:1"
         offset="1"
         id="stop833" />
    </linearGradient>
    <linearGradient
       inkscape:collect="always"
       id="linearGradient827">
      <stop
         style="stop-color:#00b8b8;stop-opacity:1"
         offset="0"
         id="stop823" />
      <stop
         style="stop-color:#001e1e;stop-opacity:1"
         offset="1"
         id="stop825" />
    </linearGradient>
    <style
       type="text/css"
       id="current-color-scheme">
      .ColorScheme-Text {
        color:#31363b;
      }
      .ColorScheme-Background {
        color:#eff0f1;
      }
      .ColorScheme-Highlight {
        color:#3daee9;
      }
      .ColorScheme-ViewText {
        color:#31363b;
      }
      .ColorScheme-ViewBackground {
        color:#fcfcfc;
      }
      .ColorScheme-ViewHover {
        color:#93cee9;
      }
      .ColorScheme-ViewFocus{
        color:#3daee9;
      }
      .ColorScheme-ButtonText {
        color:#31363b;
      }
      .ColorScheme-ButtonBackground {
        color:#eff0f1;
      }
      .ColorScheme-ButtonHover {
        color:#93cee9;
      }
      .ColorScheme-ButtonFocus{
        color:#3daee9;
      }
      </style>
    <linearGradient
       inkscape:collect="always"
       xlink:href="#linearGradient827"
       id="linearGradient829"
       x1="3"
       y1="32"
       x2="95.516396"
       y2="33.150547"
       gradientUnits="userSpaceOnUse" />
    <linearGradient
       inkscape:collect="always"
       xlink:href="#linearGradient835"
       id="linearGradient837"
       x1="4"
       y1="13"
       x2="60"
       y2="13"
       gradientUnits="userSpaceOnUse" />
  </defs>
  <path
     style="fill:url(#linearGradient829);fill-opacity:1;stroke:none"
     d="M 4 6 L 4 11 L 4 20 L 3 20 L 3 21 L 3.0019531 21 C 3.0019031 21.004 3 21.008019 3 21.011719 L 3 57 L 3 58 L 4 58 L 60 58 L 61 58 L 61 57 L 61 21.011719 L 61 21 L 61 16 L 60 16 L 60 11.009766 C 60 11.006766 59.998047 11.004 59.998047 11 L 60 11 L 60 10 L 32 10 L 28 6 L 4 6 z "
     class="ColorScheme-Highlight"
     id="path4" />
  <path
     style="fill:url(#linearGradient837);fill-opacity:1;fill-rule:evenodd"
     d="m 3.9999997,6 v 5 9 H 22 l 4,-4 h 34 v -4.990234 c 0,-0.003 -0.002,-0.0058 -0.002,-0.0098 H 60 v -1 H 32 l -4,-4 z"
     id="path6"
     inkscape:connector-curvature="0" />
  <path
     style="fill:#ffffff;fill-opacity:0.2;fill-rule:evenodd"
     d="M 28 6 L 31 11 L 33 11 L 60 11 L 60 10 L 33 10 L 32 10 L 28 6 z M 26 16 L 22 20 L 3 20 L 3 21 L 23 21 L 26 16 z "
     id="path8" />
  <path
     style="fill-opacity:0.2;fill-rule:evenodd"
     d="M 26 16 L 20 19 L 4 19 L 4 20 L 22 20 L 26 16 z M 3 57 L 3 58 L 4 58 L 60 58 L 61 58 L 61 57 L 60 57 L 4 57 L 3 57 z "
     class="ColorScheme-Text"
     id="path10" />
  <path
     style="fill:#ffffff;fill-opacity:1;stroke-width:0.0220269"
     id="path2-3"
     d="m 40.98598,38.695948 c -0.04134,0.175882 -0.130761,0.331731 -0.283296,0.429695 -0.239703,0.153622 -0.531711,0.109116 -0.738733,-0.07794 -0.193961,-0.173663 -0.259335,-0.467554 -0.198312,-0.721366 0.06314,-0.264948 0.263686,-0.498723 0.520824,-0.572188 0.573124,-0.162533 0.810658,0.474224 0.699517,0.941778 z m -0.350844,-1.807865 c -0.355212,-0.144718 -0.233173,-2.048306 0.09152,-4.359344 0.09152,-0.64566 0.248426,-0.95069 0.424934,-1.106539 0.252783,-0.220418 0.712597,-0.229322 1.024224,-0.182564 0.357386,0.0534 0.699514,0.222637 0.958837,0.478674 0.228812,0.227096 0.254967,0.458654 0.17651,0.759212 -0.128565,0.478694 -0.348671,0.937337 -0.560051,1.384843 -0.05012,0.109116 -0.488135,0.957366 -0.546967,1.062005 -1.056911,1.901371 -1.268291,2.086169 -1.569018,1.963713 z" />
  <path
     style="fill:#ffffff;fill-opacity:1;stroke-width:0.0220269"
     id="path4-3"
     d="m 33.465624,36.030908 c 0.209196,0.912843 0.187397,1.914725 0.0094,2.636092 -0.167801,0.681294 -0.623252,1.291328 -1.346735,1.496159 -0.63414,0.180339 -1.372892,0.04893 -1.826159,-0.396301 -0.745281,-0.730278 -1.181122,-2.444621 -0.987168,-3.689194 0.156901,-0.999663 0.68426,-2.279862 1.841412,-2.33552 0.07404,-0.0043 0.148178,-0.0017 0.222266,0.0043 1.178948,0.109111 1.821802,1.124347 2.087661,2.284316 z m -2.131252,2.077258 c 0.06542,0.01117 0.130749,0.01117 0.196123,-0.0096 0.220096,-0.06452 0.346488,-0.298346 0.40533,-0.525441 0.08933,-0.345097 0.07634,-0.716909 -0.0392,-1.055327 -0.05886,-0.171434 -0.146006,-0.338419 -0.278938,-0.463099 -0.468509,-0.438603 -0.93705,0.01777 -1.017682,0.536571 -0.06315,0.405213 0.02828,0.874988 0.276773,1.202274 0.115484,0.151395 0.281112,0.282753 0.457613,0.313927 z" />
  <path
     style="fill:#ffffff;fill-opacity:1;stroke-width:0.0220269"
     id="path6-6"
     d="m 36.01745,37.965679 c -0.002,1.685409 0.163427,2.974506 -0.562236,3.128136 -0.588387,0.122424 -0.568764,-0.405218 -0.614533,-0.848281 -0.174325,-1.716578 -0.333414,-4.568629 -0.400972,-6.294113 0.04795,-0.741392 0.533904,-1.195595 1.03947,-1.306905 0.780144,-0.171437 1.612603,-0.122441 2.303411,0.313923 1.366333,0.863854 1.475305,2.449065 0.647204,3.742621 -0.453263,0.705778 -1.823973,1.217861 -2.412344,1.173332 z m 0.174325,-3.778256 c -0.08502,0.01343 -0.224462,0.0534 -0.26368,0.138044 -0.0937,0.198146 -0.08716,1.456088 0.07634,1.983745 0.02622,0.08686 0.08499,0.16921 0.169978,0.200388 0.30944,0.115742 0.588387,-0.271627 0.714768,-0.505409 0.176522,-0.325058 0.23317,-0.707996 0.122016,-1.064234 -0.104628,-0.331735 -0.429302,-0.812639 -0.819386,-0.752534 z" />
  <path
     style="fill:#ffffff;fill-opacity:1;stroke-width:0.0220269"
     id="path8-7"
     d="m 28.202881,35.024561 c -0.512098,1.106545 -1.361986,1.985978 -2.538744,2.420131 0.33778,0.9017 0.682082,1.792277 1.01768,2.691758 0.18741,0.485351 0.366112,1.017468 0.202654,1.496156 -0.169976,0.489806 -0.832436,0.625623 -1.31404,0.104617 -0.92615,-1.006349 -4.057654,-7.382841 -4.288648,-7.861517 -0.196124,-0.411887 -0.490308,-0.852717 -0.481594,-1.329173 0.0153,-0.716917 1.100498,-1.442735 1.62132,-1.814543 0.727844,-0.518754 1.569006,-0.872764 2.469013,-0.87499 0.701699,0 1.300977,0.195928 1.832699,0.543244 0.815016,0.534351 1.381608,1.387075 1.590804,2.351119 0.183039,0.848255 0.143832,1.716571 -0.111094,2.273177 m -2.386216,-1.211176 c -0.183052,-0.679063 -0.597096,-1.304684 -1.11793,-1.743296 -0.113328,-0.09569 -0.23534,-0.184783 -0.376988,-0.233765 -0.976278,-0.327285 -0.553518,1.340312 -0.394442,1.761101 0.220106,0.590001 0.553522,1.33585 1.000252,1.781148 0.09808,0.09803 0.213564,0.184782 0.346496,0.211502 0.202655,0.04226 0.390074,-0.102436 0.492492,-0.271629 0.08503,-0.140261 0.117635,-0.307237 0.13728,-0.469764 0.03714,-0.345099 0.0042,-0.696876 -0.08726,-1.035297 z" />
  <path
     style="fill:#ffffff;fill-opacity:1;stroke-width:0.0220269"
     id="path10-5"
     d="m 39.877547,43.499945 c -0.0042,0.977396 -0.58838,1.954807 -1.876285,1.954807 -1.287884,0 -1.887163,-0.961823 -1.887163,-1.94368 0,-1.224542 0.83462,-1.981519 1.913318,-1.981519 1.250851,0.01117 1.86103,0.959583 1.85013,1.970392 z m -1.85013,-1.353674 c -0.808477,0 -1.261748,0.574428 -1.266106,1.358115 0,0.681287 0.372644,1.320287 1.25085,1.320287 0.878218,0 1.213804,-0.692423 1.213804,-1.326964 0.01112,-0.659014 -0.331228,-1.335852 -1.198548,-1.351438 z m 2.390567,2.807527 c 0,0.144719 0.0042,-0.687965 0,-0.814865 h 0.592737 l 0.0415,0.509845 c 0.193949,0.113591 0.494676,0.198153 0.740928,0.198153 0.45763,0 0.934865,-0.118029 0.934865,-0.574421 -0.0153,-0.414108 -0.546967,-0.498722 -0.976279,-0.543237 -0.730016,-0.07578 -1.318404,-0.25828 -1.318404,-1.095408 0,-0.745851 0.825912,-1.117674 1.440448,-1.117674 0.494666,-0.01117 0.84552,0.06894 1.292252,0.434151 0,0.300569 -0.0042,0.478691 -0.0042,0.779258 h -0.573146 l -0.03714,-0.494277 c -0.230985,-0.113581 -0.468522,-0.144706 -0.651571,-0.140261 -0.394442,0.0043 -0.815028,0.193711 -0.815028,0.532117 0,0.331744 0.272409,0.423032 0.756192,0.494261 0.788855,0.106944 1.549392,0.289451 1.549392,1.148851 -0.0042,0.939551 -0.867305,1.186689 -1.608241,1.186689 -0.564355,0.0017 -0.917383,-0.104618 -1.364108,-0.503182 z"
     inkscape:connector-curvature="0" />
  <path
     style="fill:#ffffff;stroke-width:0.0220269"
     id="path12"
     d="m 35.314336,45.134137 c 0,0.171438 -0.135115,0.309471 -0.302908,0.309471 h -3.501951 c -0.167793,0 -0.3029,-0.138033 -0.3029,-0.309471 v -0.02667 c 0,-0.171435 0.135107,-0.30947 0.3029,-0.30947 h 3.501951 c 0.167793,0 0.302908,0.138035 0.302908,0.30947 z"
     inkscape:connector-curvature="0" />
</svg>
