<?xml version="1.0" encoding="UTF-8" standalone="no"?>
<svg
   xmlns:dc="http://purl.org/dc/elements/1.1/"
   xmlns:cc="http://creativecommons.org/ns#"
   xmlns:rdf="http://www.w3.org/1999/02/22-rdf-syntax-ns#"
   xmlns:svg="http://www.w3.org/2000/svg"
   xmlns="http://www.w3.org/2000/svg"
   xmlns:xlink="http://www.w3.org/1999/xlink"
   xmlns:sodipodi="http://sodipodi.sourceforge.net/DTD/sodipodi-0.dtd"
   xmlns:inkscape="http://www.inkscape.org/namespaces/inkscape"
   viewBox="0 0 64 64"
   version="1.1"
   id="svg12"
   sodipodi:docname="folder-openSUSE.svg"
   inkscape:version="1.0.1 (3bc2e813f5, 2020-09-07)">
  <metadata
     id="metadata16">
    <rdf:RDF>
      <cc:Work
         rdf:about="">
        <dc:format>image/svg+xml</dc:format>
        <dc:type
           rdf:resource="http://purl.org/dc/dcmitype/StillImage" />
        <dc:title></dc:title>
      </cc:Work>
    </rdf:RDF>
  </metadata>
  <sodipodi:namedview
     pagecolor="#ffffff"
     bordercolor="#666666"
     borderopacity="1"
     objecttolerance="10"
     gridtolerance="10"
     guidetolerance="10"
     inkscape:pageopacity="0"
     inkscape:pageshadow="2"
     inkscape:window-width="1920"
     inkscape:window-height="1017"
     id="namedview14"
     showgrid="false"
     inkscape:zoom="2.6074563"
     inkscape:cx="-47.366576"
     inkscape:cy="14.027344"
     inkscape:window-x="0"
     inkscape:window-y="0"
     inkscape:window-maximized="1"
     inkscape:current-layer="svg12"
     inkscape:document-rotation="0" />
  <defs
     id="defs3051">
    <linearGradient
       inkscape:collect="always"
       id="linearGradient835">
      <stop
         style="stop-color:#00b8b8;stop-opacity:1"
         offset="0"
         id="stop831" />
      <stop
         style="stop-color:#00b8b8;stop-opacity:1"
         offset="1"
         id="stop833" />
    </linearGradient>
    <linearGradient
       inkscape:collect="always"
       id="linearGradient827">
      <stop
         style="stop-color:#00b8b8;stop-opacity:1"
         offset="0"
         id="stop823" />
      <stop
         style="stop-color:#001e1e;stop-opacity:1"
         offset="1"
         id="stop825" />
    </linearGradient>
    <style
       type="text/css"
       id="current-color-scheme">
      .ColorScheme-Text {
        color:#31363b;
      }
      .ColorScheme-Background {
        color:#eff0f1;
      }
      .ColorScheme-Highlight {
        color:#3daee9;
      }
      .ColorScheme-ViewText {
        color:#31363b;
      }
      .ColorScheme-ViewBackground {
        color:#fcfcfc;
      }
      .ColorScheme-ViewHover {
        color:#93cee9;
      }
      .ColorScheme-ViewFocus{
        color:#3daee9;
      }
      .ColorScheme-ButtonText {
        color:#31363b;
      }
      .ColorScheme-ButtonBackground {
        color:#eff0f1;
      }
      .ColorScheme-ButtonHover {
        color:#93cee9;
      }
      .ColorScheme-ButtonFocus{
        color:#3daee9;
      }
      </style>
    <linearGradient
       inkscape:collect="always"
       xlink:href="#linearGradient827"
       id="linearGradient829"
       x1="3"
       y1="32"
       x2="95.516396"
       y2="33.150547"
       gradientUnits="userSpaceOnUse" />
    <linearGradient
       inkscape:collect="always"
       xlink:href="#linearGradient835"
       id="linearGradient837"
       x1="4"
       y1="13"
       x2="60"
       y2="13"
       gradientUnits="userSpaceOnUse" />
  </defs>
  <path
     style="fill:url(#linearGradient829);fill-opacity:1;stroke:none"
     d="M 4 6 L 4 11 L 4 20 L 3 20 L 3 21 L 3.0019531 21 C 3.0019031 21.004 3 21.008019 3 21.011719 L 3 57 L 3 58 L 4 58 L 60 58 L 61 58 L 61 57 L 61 21.011719 L 61 21 L 61 16 L 60 16 L 60 11.009766 C 60 11.006766 59.998047 11.004 59.998047 11 L 60 11 L 60 10 L 32 10 L 28 6 L 4 6 z "
     class="ColorScheme-Highlight"
     id="path4" />
  <path
     style="fill:url(#linearGradient837);fill-opacity:1;fill-rule:evenodd"
     d="m 3.9999997,6 v 5 9 H 22 l 4,-4 h 34 v -4.990234 c 0,-0.003 -0.002,-0.0058 -0.002,-0.0098 H 60 v -1 H 32 l -4,-4 z"
     id="path6"
     inkscape:connector-curvature="0" />
  <path
     style="fill:#ffffff;fill-opacity:0.2;fill-rule:evenodd"
     d="M 28 6 L 31 11 L 33 11 L 60 11 L 60 10 L 33 10 L 32 10 L 28 6 z M 26 16 L 22 20 L 3 20 L 3 21 L 23 21 L 26 16 z "
     id="path8" />
  <path
     style="fill-opacity:0.2;fill-rule:evenodd"
     d="M 26 16 L 20 19 L 4 19 L 4 20 L 22 20 L 26 16 z M 3 57 L 3 58 L 4 58 L 60 58 L 61 58 L 61 57 L 60 57 L 4 57 L 3 57 z "
     class="ColorScheme-Text"
     id="path10" />
  <path
     style="color:#4d4d4d;font-size:20.4884px;font-family:TrebuchetMS-Bold;fill:#ffffff;fill-opacity:1;fill-rule:evenodd;stroke:none;stroke-width:0.143179;stroke-miterlimit:4"
     d="m 32.748486,28.651339 c -5.52242,0 -10,4.477061 -10,10 0,5.522938 4.47758,10 10,10 5.52243,0 10,-4.477062 10,-10 0,-5.522938 -4.47757,-10 -10,-10 z m 0.0479,1.384891 c 4.75828,0 8.61879,3.857348 8.61879,8.615109 0,4.758263 -3.86103,8.615109 -8.61879,8.615109 -2.56927,0 -4.87475,-1.126057 -6.45303,-2.909764 0.64895,-0.50367 1.73468,-0.380784 3.07182,-0.228363 0.64079,0.07283 1.37128,0.156283 2.12523,0.173103 2.10641,0.01222 4.37282,-0.372202 5.77165,-0.983423 0.90433,-0.396607 1.48336,-0.657793 1.84529,-0.9871 0.13052,-0.107092 0.19904,-0.285903 0.26889,-0.471451 l 0.0479,-0.125243 c 0.0586,-0.14987 0.14276,-0.47238 0.18047,-0.648247 0.0168,-0.07696 0.0252,-0.159759 -0.0295,-0.202582 l -0.19521,0.03677 c -0.61377,0.368065 -2.14723,1.069064 -3.58379,1.097605 -1.78015,0.03727 -5.368,-1.792056 -5.74218,-1.985261 l -0.0368,-0.04418 c -0.0897,-0.214111 -0.62664,-1.488764 -0.74033,-1.756909 2.58254,1.700628 4.72367,2.641913 6.36465,2.78822 1.82449,0.162107 3.24767,-0.834006 3.85634,-1.259674 0.11878,-0.08105 0.20957,-0.144614 0.24678,-0.158381 l 0.0405,-0.06627 c -0.10093,-0.6413 -1.05818,-3.744568 -1.779,-4.489867 -0.19984,-0.204424 -0.35872,-0.403357 -0.6814,-0.593005 -2.60905,-1.52067 -8.80386,-2.436509 -9.09392,-2.478827 l -0.0479,0.01468 -0.0184,0.04047 c 0,0 -0.0233,1.286359 -0.0258,1.429103 -0.21258,-0.07031 -0.87174,-0.286158 -1.81585,-0.545127 1.23186,-1.524234 3.11969,-2.876611 6.42357,-2.876611 z m 2.27626,4.559865 c 0.044,-6.7e-4 0.0883,-0.0013 0.1326,0 1.46152,0.05246 2.6098,1.283494 2.55985,2.744014 -0.026,0.706554 -0.3239,1.35937 -0.83979,1.841618 -0.51742,0.484799 -1.18992,0.737482 -1.90055,0.714552 -1.45899,-0.05451 -2.60726,-1.285544 -2.55985,-2.744013 0.025,-0.707573 0.32451,-1.364586 0.84346,-1.845312 0.4846,-0.454491 1.10484,-0.700972 1.76428,-0.710859 z m -0.07,0.780843 c -0.42567,0.02589 -0.82734,0.198718 -1.14181,0.493559 -0.35837,0.336447 -0.56983,0.791986 -0.58563,1.285446 -0.0337,1.01956 0.76414,1.877565 1.78268,1.915279 0.495,0.01534 0.96454,-0.158111 1.32597,-0.493543 0.36041,-0.337983 0.57035,-0.797716 0.58563,-1.289139 0.0341,-1.021079 -0.76733,-1.875924 -1.78637,-1.911602 -0.0617,-0.0021 -0.11966,-0.0033 -0.18047,0 z m 0.48619,0.924486 c 0.45267,0 0.81767,0.245995 0.81767,0.548802 0,0.30129 -0.365,0.548803 -0.81767,0.548803 -0.45422,0 -0.82137,-0.248031 -0.82137,-0.548803 0,-0.302806 0.36715,-0.548802 0.82137,-0.548802 z"
     id="path2445"
     class="ColorScheme-Text"
     inkscape:connector-curvature="0" />
</svg>
