<?xml version="1.0" encoding="UTF-8" standalone="no"?>
<!-- Created with Inkscape (http://www.inkscape.org/) -->

<svg
   xmlns:dc="http://purl.org/dc/elements/1.1/"
   xmlns:cc="http://creativecommons.org/ns#"
   xmlns:rdf="http://www.w3.org/1999/02/22-rdf-syntax-ns#"
   xmlns:svg="http://www.w3.org/2000/svg"
   xmlns="http://www.w3.org/2000/svg"
   xmlns:xlink="http://www.w3.org/1999/xlink"
   xmlns:sodipodi="http://sodipodi.sourceforge.net/DTD/sodipodi-0.dtd"
   xmlns:inkscape="http://www.inkscape.org/namespaces/inkscape"
   width="6.3499999mm"
   height="6.3499999mm"
   viewBox="0 0 6.3499999 6.3499999"
   version="1.1"
   id="svg5260"
   inkscape:version="0.92.4 (5da689c313, 2019-01-14)"
   sodipodi:docname="system-suspend-hibernate.svg">
  <defs
     id="defs5254">
    <radialGradient
       gradientTransform="matrix(0.26458333,0,0,0.26458333,-176.45346,-1.6106406)"
       inkscape:collect="always"
       xlink:href="#linearGradient940"
       id="radialGradient942"
       cx="222"
       cy="12"
       fx="222"
       fy="12"
       r="11"
       gradientUnits="userSpaceOnUse" />
    <linearGradient
       inkscape:collect="always"
       id="linearGradient940">
      <stop
         style="stop-color:#008080;stop-opacity:1;"
         offset="0"
         id="stop936" />
      <stop
         style="stop-color:#008080;stop-opacity:0;"
         offset="1"
         id="stop938" />
    </linearGradient>
  </defs>
  <sodipodi:namedview
     id="base"
     pagecolor="#ffffff"
     bordercolor="#666666"
     borderopacity="1.0"
     inkscape:pageopacity="0.0"
     inkscape:pageshadow="2"
     inkscape:zoom="11.2"
     inkscape:cx="44.413824"
     inkscape:cy="-4.9934521"
     inkscape:document-units="mm"
     inkscape:current-layer="layer1"
     showgrid="false"
     inkscape:window-width="1920"
     inkscape:window-height="1028"
     inkscape:window-x="0"
     inkscape:window-y="0"
     inkscape:window-maximized="1" />
  <metadata
     id="metadata5257">
    <rdf:RDF>
      <cc:Work
         rdf:about="">
        <dc:format>image/svg+xml</dc:format>
        <dc:type
           rdf:resource="http://purl.org/dc/dcmitype/StillImage" />
        <dc:title></dc:title>
      </cc:Work>
    </rdf:RDF>
  </metadata>
  <g
     inkscape:label="Layer 1"
     inkscape:groupmode="layer"
     id="layer1"
     transform="translate(120.856,1.6049999)">
    <rect
       y="-1.6049999"
       x="-120.856"
       height="6.3499999"
       width="6.3499999"
       id="rect4570-7-1-0"
       style="color:#000000;display:inline;overflow:visible;visibility:visible;opacity:0.01000001;fill:#000000;fill-opacity:0.00392157;stroke:none;stroke-width:1.32291663;marker:none;enable-background:accumulate" />
    <path
       inkscape:connector-curvature="0"
       d="m -117.246,-0.19899361 c -0.31013,-0.0833543 -0.63753,-0.0836411 -0.94751,-8.202e-4 -0.97249,0.2597838 -1.55179,1.26569471 -1.2903,2.23864491 0.2615,0.9729481 1.26844,1.5540149 2.24092,1.2942353 0.97249,-0.2597838 1.55179,-1.2656965 1.29029,-2.2386449 l -0.48105,0.1296467 c 0.19148,0.7124348 -0.22764,1.4374963 -0.93973,1.6277211 -0.7121,0.1902227 -1.4379,-0.2301764 -1.62938,-0.9426091 -0.19147,-0.7124305 0.22764,-1.43749631 0.93974,-1.62771691 0.22544,-0.0602207 0.46183,-0.060017 0.68737,6.35e-4 l 0.12965,-0.4810482 z m -0.43539,0.8206296 c 0.0988,0.012682 0.17009,0.073496 0.16846,0.1438264 l 0.005,0.59101231 h 0.62367 c 0.27782,-0.00283 0.26562,0.4185094 -0.0122,0.4157569 h -0.82177 c -0.11345,-8.2e-6 -0.20543,-0.064397 -0.20544,-0.1438243 V 0.76546239 c -0.002,-0.091279 0.11588,-0.160946 0.24397,-0.1438264 z m 1.10881,-0.512485 c -0.17221,0 -0.31183,0.1396085 -0.31183,0.3118221 0,0.1722136 0.13962,0.3118199 0.31183,0.3118199 0.17222,0 0.31183,-0.1396063 0.31183,-0.3118199 0,-0.1722157 -0.13961,-0.3118221 -0.31183,-0.3118221 z m -3.26005,-1.45520829 h 4.23334 c 0.52916,0 0.79375,0.2645833 0.79375,0.79374999 V 3.681026 c 0,0.5291667 -0.26459,0.79375 -0.79375,0.79375 h -4.23334 c -0.52916,0 -0.79375,-0.2645833 -0.79375,-0.79375 v -4.23333331 c 0,-0.52916669 0.26459,-0.79374999 0.79375,-0.79374999 z"
       style="color:#000000;font-style:normal;font-variant:normal;font-weight:normal;font-stretch:normal;font-size:xx-small;line-height:normal;font-family:sans-serif;-inkscape-font-specification:sans-serif;text-indent:0;text-align:start;text-decoration:none;text-decoration-line:none;letter-spacing:normal;word-spacing:normal;text-transform:none;writing-mode:lr-tb;direction:ltr;baseline-shift:baseline;text-anchor:start;clip-rule:nonzero;display:inline;overflow:visible;visibility:visible;color-interpolation:sRGB;color-interpolation-filters:linearRGB;fill:url(#radialGradient942);fill-opacity:1;fill-rule:evenodd;stroke:none;stroke-width:2.75839353;marker:none;color-rendering:auto;image-rendering:auto;shape-rendering:auto;text-rendering:auto;enable-background:accumulate"
       id="path13-9-1-5-0-0" />
  </g>
</svg>
