<?xml version="1.0" encoding="UTF-8" standalone="no"?>
<!-- Created with Inkscape (http://www.inkscape.org/) -->

<svg
   xmlns:dc="http://purl.org/dc/elements/1.1/"
   xmlns:cc="http://creativecommons.org/ns#"
   xmlns:rdf="http://www.w3.org/1999/02/22-rdf-syntax-ns#"
   xmlns:svg="http://www.w3.org/2000/svg"
   xmlns="http://www.w3.org/2000/svg"
   xmlns:xlink="http://www.w3.org/1999/xlink"
   xmlns:sodipodi="http://sodipodi.sourceforge.net/DTD/sodipodi-0.dtd"
   xmlns:inkscape="http://www.inkscape.org/namespaces/inkscape"
   width="6.3499999mm"
   height="6.3499999mm"
   viewBox="0 0 6.3499999 6.3499999"
   version="1.1"
   id="svg4648"
   inkscape:version="0.92.4 (5da689c313, 2019-01-14)"
   sodipodi:docname="system-suspend.svg">
  <defs
     id="defs4642">
    <radialGradient
       gradientTransform="matrix(0.26458333,0,0,0.26458333,-167.4529,20.92619)"
       inkscape:collect="always"
       xlink:href="#linearGradient932"
       id="radialGradient934"
       cx="192"
       cy="12"
       fx="192"
       fy="12"
       r="11"
       gradientUnits="userSpaceOnUse" />
    <linearGradient
       inkscape:collect="always"
       id="linearGradient932">
      <stop
         style="stop-color:#008080;stop-opacity:1;"
         offset="0"
         id="stop928" />
      <stop
         style="stop-color:#008080;stop-opacity:0;"
         offset="1"
         id="stop930" />
    </linearGradient>
  </defs>
  <sodipodi:namedview
     id="base"
     pagecolor="#ffffff"
     bordercolor="#666666"
     borderopacity="1.0"
     inkscape:pageopacity="0.0"
     inkscape:pageshadow="2"
     inkscape:zoom="11.2"
     inkscape:cx="40.958772"
     inkscape:cy="-6.1671886"
     inkscape:document-units="mm"
     inkscape:current-layer="layer1"
     showgrid="false"
     inkscape:window-width="1920"
     inkscape:window-height="1028"
     inkscape:window-x="0"
     inkscape:window-y="0"
     inkscape:window-maximized="1" />
  <metadata
     id="metadata4645">
    <rdf:RDF>
      <cc:Work
         rdf:about="">
        <dc:format>image/svg+xml</dc:format>
        <dc:type
           rdf:resource="http://purl.org/dc/dcmitype/StillImage" />
        <dc:title></dc:title>
      </cc:Work>
    </rdf:RDF>
  </metadata>
  <g
     inkscape:label="Layer 1"
     inkscape:groupmode="layer"
     id="layer1"
     transform="translate(119.844,-20.962)">
    <rect
       y="20.962"
       x="-119.844"
       height="6.3499999"
       width="6.3499999"
       id="rect4570-72-4"
       style="color:#000000;display:inline;overflow:visible;visibility:visible;opacity:0.01000001;fill:#000000;fill-opacity:0.00392157;stroke:none;stroke-width:1.32291663;marker:none;enable-background:accumulate" />
    <path
       inkscape:connector-curvature="0"
       d="m -116.18294,22.337837 c -0.31013,-0.08335 -0.63753,-0.08364 -0.94752,-8.2e-4 -0.97248,0.259783 -1.55179,1.265694 -1.29029,2.238645 0.2615,0.972948 1.26843,1.554014 2.24092,1.294235 0.97249,-0.259784 1.55179,-1.265697 1.29029,-2.238645 l -0.48105,0.129647 c 0.19148,0.712434 -0.22764,1.437496 -0.93973,1.627721 -0.7121,0.190222 -1.4379,-0.230177 -1.62938,-0.942609 -0.19148,-0.712431 0.22764,-1.437497 0.93974,-1.627717 0.22544,-0.06022 0.46183,-0.06002 0.68737,6.35e-4 l 0.12965,-0.481048 z m -0.43539,0.820629 c 0.0988,0.01268 0.17009,0.0735 0.16846,0.143827 l 0.005,0.591012 h 0.62366 c 0.27782,-0.0028 0.26563,0.41851 -0.0122,0.415757 h -0.82177 c -0.11346,-8e-6 -0.20543,-0.0644 -0.20544,-0.143824 v -0.862945 c -0.002,-0.09128 0.11587,-0.160946 0.24397,-0.143827 z m -2.15124,-1.967693 h 4.23333 c 0.52917,0 0.79375,0.264583 0.79375,0.79375 v 4.233333 c 0,0.529167 -0.26458,0.79375 -0.79375,0.79375 h -4.23333 c -0.52917,0 -0.79375,-0.264583 -0.79375,-0.79375 v -4.233333 c 0,-0.529167 0.26458,-0.79375 0.79375,-0.79375 z"
       style="color:#000000;font-style:normal;font-variant:normal;font-weight:normal;font-stretch:normal;font-size:xx-small;line-height:normal;font-family:sans-serif;-inkscape-font-specification:sans-serif;text-indent:0;text-align:start;text-decoration:none;text-decoration-line:none;letter-spacing:normal;word-spacing:normal;text-transform:none;writing-mode:lr-tb;direction:ltr;baseline-shift:baseline;text-anchor:start;clip-rule:nonzero;display:inline;overflow:visible;visibility:visible;color-interpolation:sRGB;color-interpolation-filters:linearRGB;fill:url(#radialGradient934);fill-opacity:1;fill-rule:evenodd;stroke:none;stroke-width:2.75839353;marker:none;color-rendering:auto;image-rendering:auto;shape-rendering:auto;text-rendering:auto;enable-background:accumulate"
       id="path13-9-1-11-0" />
  </g>
</svg>
