<?xml version="1.0" encoding="UTF-8" standalone="no"?>
<!-- Created with Inkscape (http://www.inkscape.org/) -->

<svg
   xmlns:dc="http://purl.org/dc/elements/1.1/"
   xmlns:cc="http://creativecommons.org/ns#"
   xmlns:rdf="http://www.w3.org/1999/02/22-rdf-syntax-ns#"
   xmlns:svg="http://www.w3.org/2000/svg"
   xmlns="http://www.w3.org/2000/svg"
   xmlns:xlink="http://www.w3.org/1999/xlink"
   xmlns:sodipodi="http://sodipodi.sourceforge.net/DTD/sodipodi-0.dtd"
   xmlns:inkscape="http://www.inkscape.org/namespaces/inkscape"
   width="6.3499999mm"
   height="6.3499999mm"
   viewBox="0 0 6.3499999 6.3499999"
   version="1.1"
   id="svg938"
   inkscape:version="0.92.4 (5da689c313, 2019-01-14)"
   sodipodi:docname="system-log-out.svg">
  <defs
     id="defs932">
    <radialGradient
       gradientTransform="matrix(0.26458333,0,0,0.26458333,82.956325,145.77645)"
       inkscape:collect="always"
       xlink:href="#linearGradient892"
       id="radialGradient894"
       cx="42"
       cy="12"
       fx="42"
       fy="12"
       r="11"
       gradientUnits="userSpaceOnUse" />
    <linearGradient
       inkscape:collect="always"
       id="linearGradient892">
      <stop
         style="stop-color:#008080;stop-opacity:1;"
         offset="0"
         id="stop888" />
      <stop
         style="stop-color:#008080;stop-opacity:0;"
         offset="1"
         id="stop890" />
    </linearGradient>
  </defs>
  <sodipodi:namedview
     id="base"
     pagecolor="#ffffff"
     bordercolor="#666666"
     borderopacity="1.0"
     inkscape:pageopacity="0.0"
     inkscape:pageshadow="2"
     inkscape:zoom="11.2"
     inkscape:cx="3.9346583"
     inkscape:cy="9.9635178"
     inkscape:document-units="mm"
     inkscape:current-layer="layer1"
     showgrid="false"
     inkscape:window-width="1920"
     inkscape:window-height="1028"
     inkscape:window-x="0"
     inkscape:window-y="0"
     inkscape:window-maximized="1" />
  <metadata
     id="metadata935">
    <rdf:RDF>
      <cc:Work
         rdf:about="">
        <dc:format>image/svg+xml</dc:format>
        <dc:type
           rdf:resource="http://purl.org/dc/dcmitype/StillImage" />
        <dc:title></dc:title>
      </cc:Work>
    </rdf:RDF>
  </metadata>
  <g
     inkscape:label="Layer 1"
     inkscape:groupmode="layer"
     id="layer1"
     transform="translate(-90.962997,-145.77)">
    <rect
       y="145.77"
       x="90.962997"
       height="6.3499999"
       width="6.3499999"
       id="rect4570-7"
       style="color:#000000;display:inline;overflow:visible;visibility:visible;opacity:0.01000001;fill:#000000;fill-opacity:0.00392157;stroke:none;stroke-width:1.32291663;marker:none;enable-background:accumulate" />
    <path
       inkscape:connector-curvature="0"
       d="m 91.952158,146.04103 h 4.233334 c 0.529166,0 0.79375,0.26458 0.79375,0.79375 v 4.23333 c 0,0.52917 -0.264584,0.79375 -0.79375,0.79375 h -4.233334 c -0.529166,0 -0.79375,-0.26458 -0.79375,-0.79375 v -4.23333 c 0,-0.52917 0.264584,-0.79375 0.79375,-0.79375 z m 3.226089,1.45915 c -0.655509,-0.50332 -1.569308,-0.50332 -2.224817,0 -0.798697,0.61326 -0.950771,1.76519 -0.337909,2.56441 0.612862,0.79922 1.764029,0.95139 2.562726,0.33813 l -0.30352,-0.39648 c -0.584917,0.44912 -1.415657,0.33993 -1.86448,-0.24537 -0.448823,-0.5853 -0.338214,-1.41509 0.246704,-1.86421 0.478383,-0.36732 1.139392,-0.36881 1.617776,-0.001 l 0.30352,-0.39499 z m 0.10989,0.6855 c -0.02898,0.0174 -0.04372,0.25073 -0.05075,0.51646 h -0.837638 v 0.49861 h 0.837638 c 0.007,0.26573 0.02177,0.49907 0.05075,0.51647 0.07653,0.0459 1.275338,-0.67388 1.275338,-0.76577 0,-0.0919 -1.198808,-0.81172 -1.275338,-0.76577 z"
       style="color:#000000;display:inline;overflow:visible;visibility:visible;fill:url(#radialGradient894);fill-opacity:1;fill-rule:evenodd;stroke:none;stroke-width:2.3812499;marker:none;enable-background:accumulate"
       id="rect4747-6-8" />
  </g>
</svg>
